<svg width="50" height="50" viewBox="0 0 50 50" fill="none" xmlns="http://www.w3.org/2000/svg">
<path d="M26.6667 43.4967V20H23.3334V43.4967L17.929 38.0923L15.5719 40.4493L25 49.8775L34.4282 40.4493L32.0711 38.0923L26.6667 43.4967Z" fill="url(#paint0_linear_17_548)"/>
<path d="M40 15C40 6.72917 33.2708 0 25 0C16.7292 0 10 6.72917 10 15C7.34783 15 4.8043 16.0536 2.92893 17.9289C1.05357 19.8043 0 22.3478 0 25C0 27.6522 1.05357 30.1957 2.92893 32.0711C4.8043 33.9464 7.34783 35 10 35H18.3333V31.6667H10C8.23189 31.6667 6.5362 30.9643 5.28595 29.714C4.03571 28.4638 3.33333 26.7681 3.33333 25C3.33333 23.2319 4.03571 21.5362 5.28595 20.286C6.5362 19.0357 8.23189 18.3333 10 18.3333H13.3333V15C13.3333 11.9058 14.5625 8.93834 16.7504 6.75042C18.9383 4.5625 21.9058 3.33333 25 3.33333C28.0942 3.33333 31.0617 4.5625 33.2496 6.75042C35.4375 8.93834 36.6667 11.9058 36.6667 15V18.3333H40C41.7681 18.3333 43.4638 19.0357 44.714 20.286C45.9643 21.5362 46.6667 23.2319 46.6667 25C46.6667 26.7681 45.9643 28.4638 44.714 29.714C43.4638 30.9643 41.7681 31.6667 40 31.6667H31.6667V35H40C42.6522 35 45.1957 33.9464 47.0711 32.0711C48.9464 30.1957 50 27.6522 50 25C50 22.3478 48.9464 19.8043 47.0711 17.9289C45.1957 16.0536 42.6522 15 40 15Z" fill="url(#paint1_linear_17_548)"/>
<defs>
<linearGradient id="paint0_linear_17_548" x1="19.7454" y1="23.5378" x2="45.6503" y2="43.5746" gradientUnits="userSpaceOnUse">
<stop stop-color="#DFCAEC"/>
<stop offset="1" stop-color="#9932D8"/>
</linearGradient>
<linearGradient id="paint1_linear_17_548" x1="11.0665" y1="4.14435" x2="38.072" y2="51.4256" gradientUnits="userSpaceOnUse">
<stop stop-color="#DFCAEC"/>
<stop offset="1" stop-color="#9932D8"/>
</linearGradient>
</defs>
</svg>
