<svg width="61" height="60" viewBox="0 0 61 60" fill="none" xmlns="http://www.w3.org/2000/svg">
<g clip-path="url(#clip0_20_669)">
<path fill-rule="evenodd" clip-rule="evenodd" d="M1.69151 6.73782C0.28418 9.44705 0.28418 13.0064 0.28418 20.125V39.875C0.28418 46.9936 0.28418 50.553 1.69151 53.2622C2.87746 55.5452 4.73896 57.4067 7.022 58.5927C9.73123 60 13.2905 60 20.4092 60H40.1592C47.2778 60 50.8371 60 53.5464 58.5927C55.8294 57.4067 57.6909 55.5452 58.8768 53.2622C60.2842 50.553 60.2842 46.9936 60.2842 39.875V20.125C60.2842 13.0064 60.2842 9.44705 58.8768 6.73782C57.6909 4.45478 55.8294 2.59328 53.5464 1.40733C50.8371 0 47.2778 0 40.1592 0H20.4092C13.2905 0 9.73123 0 7.022 1.40733C4.73896 2.59328 2.87746 4.45478 1.69151 6.73782ZM36.6848 12.8524C39.9006 13.4077 42.9762 14.3773 45.8444 15.6933C45.8692 15.704 45.8905 15.7219 45.9029 15.7469C50.9847 23.2216 53.4945 31.6533 52.5562 41.36C52.5527 41.4011 52.5314 41.4386 52.4977 41.4636C48.6487 44.2903 44.9203 46.0063 41.2433 47.1437C41.1848 47.1616 41.1209 47.1401 41.0854 47.0901C40.2358 45.9081 39.4642 44.6617 38.7884 43.3528C38.7494 43.276 38.7849 43.1832 38.8647 43.1528C40.0904 42.6903 41.2557 42.1368 42.3767 41.4815C42.4654 41.4297 42.4707 41.3029 42.3891 41.2422C42.1515 41.0654 41.9156 40.8797 41.6903 40.694C41.6477 40.6601 41.591 40.6529 41.5431 40.6761C34.2654 44.0385 26.2924 44.0385 18.9278 40.6761C18.88 40.6547 18.8232 40.6619 18.7824 40.6958C18.5571 40.8815 18.3212 41.0654 18.0853 41.2422C18.0037 41.3029 18.0108 41.4297 18.0995 41.4815C19.2205 42.1243 20.3859 42.6903 21.6097 43.1546C21.6896 43.185 21.7268 43.276 21.6878 43.3528C21.0262 44.6635 20.2546 45.9098 19.389 47.0919C19.3518 47.1401 19.2897 47.1616 19.2312 47.1437C15.5719 46.0063 11.8435 44.2903 7.9945 41.4636C7.96257 41.4386 7.93951 41.3993 7.93596 41.3583C7.15197 32.9622 8.75011 24.4608 14.584 15.7451C14.5981 15.7219 14.6194 15.704 14.6443 15.6933C17.5142 14.3755 20.5898 13.4059 23.8039 12.8524C23.8624 12.8434 23.9209 12.8702 23.9511 12.922C24.3484 13.6255 24.8025 14.5273 25.1093 15.2648C28.4972 14.7469 31.9382 14.7469 35.397 15.2648C35.7039 14.5434 36.142 13.6255 36.5376 12.922C36.5677 12.8684 36.6263 12.8417 36.6848 12.8524ZM18.7434 31.7105C18.7434 34.2104 20.5703 36.246 22.7875 36.246C25.0402 36.246 26.8316 34.2104 26.8316 31.7105C26.8671 29.2284 25.0579 27.1749 22.7875 27.1749C20.5349 27.1749 18.7434 29.2106 18.7434 31.7105ZM33.696 31.7105C33.696 34.2104 35.523 36.246 37.7402 36.246C40.0106 36.246 41.7843 34.2104 41.7843 31.7105C41.8198 29.2284 40.0106 27.1749 37.7402 27.1749C35.4875 27.1749 33.696 29.2106 33.696 31.7105Z" fill="#9932D8"/>
</g>
<defs>
<clipPath id="clip0_20_669">
<rect width="60" height="60" fill="white" transform="translate(0.25)"/>
</clipPath>
</defs>
</svg>
