<svg width="21" height="21" viewBox="0 0 21 21" fill="none" xmlns="http://www.w3.org/2000/svg">
<path d="M10.7401 17.5363V8.1376H9.40672V17.5363L7.24497 15.3745L6.30214 16.3173L10.0734 20.0886L13.8446 16.3173L12.9018 15.3745L10.7401 17.5363Z" fill="url(#paint0_linear_20_728)"/>
<path d="M16.0734 6.1376C16.0734 2.82927 13.3817 0.137604 10.0734 0.137604C6.76506 0.137604 4.07339 2.82927 4.07339 6.1376C3.01253 6.1376 1.99511 6.55903 1.24497 7.30918C0.494822 8.05932 0.0733948 9.07674 0.0733948 10.1376C0.0733948 11.1985 0.494822 12.2159 1.24497 12.966C1.99511 13.7162 3.01253 14.1376 4.07339 14.1376H7.40673V12.8043H4.07339C3.36615 12.8043 2.68787 12.5233 2.18778 12.0232C1.68768 11.5231 1.40673 10.8448 1.40673 10.1376C1.40673 9.43036 1.68768 8.75208 2.18778 8.25199C2.68787 7.75189 3.36615 7.47094 4.07339 7.47094H5.40673V6.1376C5.40673 4.89993 5.89839 3.71294 6.77356 2.83777C7.64873 1.9626 8.83572 1.47094 10.0734 1.47094C11.3111 1.47094 12.4981 1.9626 13.3732 2.83777C14.2484 3.71294 14.7401 4.89993 14.7401 6.1376V7.47094H16.0734C16.7806 7.47094 17.4589 7.75189 17.959 8.25199C18.4591 8.75208 18.7401 9.43036 18.7401 10.1376C18.7401 10.8448 18.4591 11.5231 17.959 12.0232C17.4589 12.5233 16.7806 12.8043 16.0734 12.8043H12.7401V14.1376H16.0734C17.1343 14.1376 18.1517 13.7162 18.9018 12.966C19.652 12.2159 20.0734 11.1985 20.0734 10.1376C20.0734 9.07674 19.652 8.05932 18.9018 7.30918C18.1517 6.55903 17.1343 6.1376 16.0734 6.1376Z" fill="url(#paint1_linear_20_728)"/>
<defs>
<linearGradient id="paint0_linear_20_728" x1="6.0859" y1="6.85714" x2="17.009" y2="17.6934" gradientUnits="userSpaceOnUse">
<stop stop-color="#E840A5"/>
<stop offset="1" stop-color="#3A2D88"/>
</linearGradient>
<linearGradient id="paint1_linear_20_728" x1="-0.5" y1="-1.36239" x2="9.0108" y2="19.9947" gradientUnits="userSpaceOnUse">
<stop stop-color="#E840A5"/>
<stop offset="1" stop-color="#3A2D88"/>
</linearGradient>
</defs>
</svg>
