<svg width="60" height="61" viewBox="0 0 60 61" fill="none" xmlns="http://www.w3.org/2000/svg">
<path fill-rule="evenodd" clip-rule="evenodd" d="M1.40733 6.73782C0 9.44705 0 13.0064 0 20.125V39.875C0 46.9936 0 50.553 1.40733 53.2622C2.59328 55.5452 4.45478 57.4067 6.73782 58.5927C9.44705 60 13.0064 60 20.125 60H22.4909C22.4951 59.5204 22.5389 54.4967 22.5237 51.9187C14.1791 53.7309 12.4184 47.8965 12.4184 47.8965C11.0537 44.4323 9.08681 43.5096 9.08681 43.5096C6.36297 41.6476 9.29308 41.6845 9.29308 41.6845C12.3042 41.8981 13.8881 44.7767 13.8881 44.7767C16.564 49.3606 20.9104 48.0364 22.6195 47.2703C22.892 45.331 23.6655 44.0087 24.5238 43.2591C17.8624 42.5022 10.8585 39.9275 10.8585 28.4318C10.8585 25.1573 12.028 22.4795 13.947 20.3818C13.6376 19.623 12.6081 16.5732 14.2398 12.4423C14.2398 12.4423 16.7592 11.6357 22.4905 15.5179C24.8829 14.8531 27.4502 14.5198 30.0009 14.5087C32.5479 14.5198 35.1152 14.8531 37.5113 15.5179C43.2389 11.6357 45.7528 12.4423 45.7528 12.4423C47.39 16.5732 46.3605 19.623 46.0511 20.3818C47.9738 22.4795 49.1359 25.1573 49.1359 28.4318C49.1359 39.957 42.121 42.493 35.4375 43.2352C36.5149 44.1615 37.4744 45.9922 37.4744 48.7915C37.4744 52.387 37.5083 59.4289 37.5111 60H39.875C46.9936 60 50.553 60 53.2622 58.5927C55.5452 57.4067 57.4067 55.5452 58.5927 53.2622C60 50.553 60 46.9936 60 39.875V20.125C60 13.0064 60 9.44705 58.5927 6.73782C57.4067 4.45478 55.5452 2.59328 53.2622 1.40733C50.553 0 46.9936 0 39.875 0H20.125C13.0064 0 9.44705 0 6.73782 1.40733C4.45478 2.59328 2.59328 4.45478 1.40733 6.73782Z" fill="#9932D8"/>
<path fill-rule="evenodd" clip-rule="evenodd" d="M22.4906 60.037C22.4906 60.037 22.5397 54.6276 22.5237 51.9187C14.1791 53.7309 12.4184 47.8964 12.4184 47.8964C11.0537 44.4323 9.08683 43.5096 9.08683 43.5096C6.36299 41.6476 9.2931 41.6845 9.2931 41.6845C12.3042 41.8981 13.8881 44.7766 13.8881 44.7766C16.564 49.3606 20.9104 48.0364 22.6195 47.2703C22.892 45.331 23.6655 44.0087 24.5238 43.2591C17.8624 42.5022 10.8585 39.9275 10.8585 28.4318C10.8585 25.1573 12.028 22.4795 13.947 20.3818C13.6376 19.623 12.6081 16.5732 14.2398 12.4423C14.2398 12.4423 16.7593 11.6357 22.4906 15.5179C24.8829 14.8531 27.4502 14.5197 30.0009 14.5087C32.548 14.5197 35.1152 14.8531 37.5113 15.5179C43.2389 11.6357 45.7528 12.4423 45.7528 12.4423C47.39 16.5732 46.3605 19.623 46.0511 20.3818C47.9738 22.4795 49.1359 25.1573 49.1359 28.4318C49.1359 39.957 42.121 42.493 35.4375 43.2352C36.5149 44.1615 37.4744 45.9921 37.4744 48.7915C37.4744 52.5406 37.5113 60.037 37.5113 60.037H22.4906Z" fill="white"/>
</svg>
