<svg width="40" height="40" viewBox="0 0 40 40" fill="none" xmlns="http://www.w3.org/2000/svg">
<mask id="path-1-inside-1_20_673" fill="white">
<path fill-rule="evenodd" clip-rule="evenodd" d="M0.938221 4.49188C0 6.29803 0 8.67091 0 13.4167V26.5833C0 31.3291 0 33.702 0.938221 35.5081C1.72885 37.0301 2.96985 38.2711 4.49188 39.0618C6.29803 40 8.67091 40 13.4167 40H26.5833C31.3291 40 33.702 40 35.5081 39.0618C37.0301 38.2711 38.2711 37.0301 39.0618 35.5081C40 33.702 40 31.3291 40 26.5833V13.4167C40 8.67091 40 6.29803 39.0618 4.49188C38.2711 2.96985 37.0301 1.72885 35.5081 0.938221C33.702 0 31.3291 0 26.5833 0H13.4167C8.67091 0 6.29803 0 4.49188 0.938221C2.96985 1.72885 1.72885 2.96985 0.938221 4.49188ZM20 11.9697C21.9576 11.9697 23.7152 12.6424 25.097 13.9636L28.9213 10.1394C26.6122 7.98788 23.594 6.66667 20 6.66667C14.7879 6.66667 10.2788 9.65457 8.08485 14.0122C7.18182 15.8122 6.66667 17.8485 6.66667 20C6.66667 22.1516 7.18184 24.1879 8.08488 25.9879C10.2788 30.3455 14.7879 33.3333 20 33.3333C23.6 33.3333 26.6182 32.1394 28.8243 30.1031C31.3455 27.7819 32.8 24.3637 32.8 20.3031C32.8 19.3576 32.7152 18.4485 32.5576 17.5758H20V22.7334H27.1758C26.8667 24.4 25.9273 25.8121 24.5152 26.7576C23.3212 27.5576 21.794 28.0303 20 28.0303C16.5273 28.0303 13.5879 25.6848 12.5394 22.5333C12.2727 21.7333 12.1212 20.8788 12.1212 20C12.1212 19.1213 12.2727 18.2667 12.5394 17.4667C13.5879 14.3152 16.5273 11.9697 20 11.9697Z"/>
</mask>
<path fill-rule="evenodd" clip-rule="evenodd" d="M0.938221 4.49188C0 6.29803 0 8.67091 0 13.4167V26.5833C0 31.3291 0 33.702 0.938221 35.5081C1.72885 37.0301 2.96985 38.2711 4.49188 39.0618C6.29803 40 8.67091 40 13.4167 40H26.5833C31.3291 40 33.702 40 35.5081 39.0618C37.0301 38.2711 38.2711 37.0301 39.0618 35.5081C40 33.702 40 31.3291 40 26.5833V13.4167C40 8.67091 40 6.29803 39.0618 4.49188C38.2711 2.96985 37.0301 1.72885 35.5081 0.938221C33.702 0 31.3291 0 26.5833 0H13.4167C8.67091 0 6.29803 0 4.49188 0.938221C2.96985 1.72885 1.72885 2.96985 0.938221 4.49188ZM20 11.9697C21.9576 11.9697 23.7152 12.6424 25.097 13.9636L28.9213 10.1394C26.6122 7.98788 23.594 6.66667 20 6.66667C14.7879 6.66667 10.2788 9.65457 8.08485 14.0122C7.18182 15.8122 6.66667 17.8485 6.66667 20C6.66667 22.1516 7.18184 24.1879 8.08488 25.9879C10.2788 30.3455 14.7879 33.3333 20 33.3333C23.6 33.3333 26.6182 32.1394 28.8243 30.1031C31.3455 27.7819 32.8 24.3637 32.8 20.3031C32.8 19.3576 32.7152 18.4485 32.5576 17.5758H20V22.7334H27.1758C26.8667 24.4 25.9273 25.8121 24.5152 26.7576C23.3212 27.5576 21.794 28.0303 20 28.0303C16.5273 28.0303 13.5879 25.6848 12.5394 22.5333C12.2727 21.7333 12.1212 20.8788 12.1212 20C12.1212 19.1213 12.2727 18.2667 12.5394 17.4667C13.5879 14.3152 16.5273 11.9697 20 11.9697Z" fill="#9932D8"/>
<path d="M0.938221 4.49188L1.38193 4.72237L0.938221 4.49188ZM0.938221 35.5081L0.494514 35.7386L0.494515 35.7386L0.938221 35.5081ZM4.49188 39.0618L4.26139 39.5055L4.26139 39.5055L4.49188 39.0618ZM35.5081 39.0618L35.7386 39.5055L35.7386 39.5055L35.5081 39.0618ZM39.0618 35.5081L39.5055 35.7386L39.5055 35.7386L39.0618 35.5081ZM39.0618 4.49188L39.5055 4.26139L39.5055 4.26139L39.0618 4.49188ZM35.5081 0.938221L35.7386 0.494515L35.7386 0.494514L35.5081 0.938221ZM4.49188 0.938221L4.72237 1.38193L4.49188 0.938221ZM25.097 13.9636L24.7515 14.325L25.1048 14.6629L25.4506 14.3172L25.097 13.9636ZM28.9213 10.1394L29.2748 10.493L29.6411 10.1267L29.2621 9.77358L28.9213 10.1394ZM8.08485 14.0122L7.63826 13.7873L7.63794 13.7879L8.08485 14.0122ZM8.08488 25.9879L7.63796 26.2121L7.63829 26.2128L8.08488 25.9879ZM28.8243 30.1031L28.4856 29.7352L28.4851 29.7357L28.8243 30.1031ZM32.5576 17.5758L33.0497 17.487L32.9754 17.0758H32.5576V17.5758ZM20 17.5758V17.0758H19.5V17.5758H20ZM20 22.7334H19.5V23.2334H20V22.7334ZM27.1758 22.7334L27.6674 22.8246L27.777 22.2334H27.1758V22.7334ZM24.5152 26.7576L24.237 26.3421L24.2369 26.3422L24.5152 26.7576ZM12.5394 22.5333L13.0138 22.3755L13.0137 22.3752L12.5394 22.5333ZM12.5394 17.4667L13.0137 17.6248L13.0138 17.6245L12.5394 17.4667ZM0.5 13.4167C0.5 11.0354 0.500402 9.28002 0.615562 7.8933C0.730226 6.51257 0.95607 5.54218 1.38193 4.72237L0.494515 4.26139C-0.0178483 5.24773 -0.261115 6.36686 -0.381007 7.81054C-0.500402 9.24824 -0.5 11.0522 -0.5 13.4167H0.5ZM0.5 26.5833V13.4167H-0.5V26.5833H0.5ZM1.38193 35.2776C0.95607 34.4578 0.730226 33.4874 0.615562 32.1067C0.500402 30.72 0.5 28.9646 0.5 26.5833H-0.5C-0.5 28.9478 -0.500402 30.7518 -0.381007 32.1895C-0.261115 33.6331 -0.0178483 34.7523 0.494514 35.7386L1.38193 35.2776ZM4.72237 38.6181C3.29166 37.8749 2.12512 36.7083 1.38193 35.2776L0.494515 35.7386C1.33258 37.352 2.64804 38.6674 4.26139 39.5055L4.72237 38.6181ZM13.4167 39.5C11.0354 39.5 9.28002 39.4996 7.8933 39.3844C6.51257 39.2698 5.54218 39.0439 4.72237 38.6181L4.26139 39.5055C5.24773 40.0178 6.36686 40.2611 7.81054 40.381C9.24824 40.5004 11.0522 40.5 13.4167 40.5V39.5ZM26.5833 39.5H13.4167V40.5H26.5833V39.5ZM35.2776 38.6181C34.4578 39.0439 33.4874 39.2698 32.1067 39.3844C30.72 39.4996 28.9646 39.5 26.5833 39.5V40.5C28.9478 40.5 30.7518 40.5004 32.1895 40.381C33.6331 40.2611 34.7523 40.0178 35.7386 39.5055L35.2776 38.6181ZM38.6181 35.2776C37.8749 36.7083 36.7083 37.8749 35.2776 38.6181L35.7386 39.5055C37.352 38.6674 38.6674 37.352 39.5055 35.7386L38.6181 35.2776ZM39.5 26.5833C39.5 28.9646 39.4996 30.72 39.3844 32.1067C39.2698 33.4874 39.0439 34.4578 38.6181 35.2776L39.5055 35.7386C40.0178 34.7523 40.2611 33.6331 40.381 32.1895C40.5004 30.7518 40.5 28.9478 40.5 26.5833H39.5ZM39.5 13.4167V26.5833H40.5V13.4167H39.5ZM38.6181 4.72237C39.0439 5.54218 39.2698 6.51257 39.3844 7.8933C39.4996 9.28002 39.5 11.0354 39.5 13.4167H40.5C40.5 11.0522 40.5004 9.24824 40.381 7.81054C40.2611 6.36686 40.0178 5.24773 39.5055 4.26139L38.6181 4.72237ZM35.2776 1.38193C36.7083 2.12512 37.8749 3.29166 38.6181 4.72237L39.5055 4.26139C38.6674 2.64804 37.352 1.33258 35.7386 0.494515L35.2776 1.38193ZM26.5833 0.5C28.9646 0.5 30.72 0.500402 32.1067 0.615562C33.4874 0.730226 34.4578 0.95607 35.2776 1.38193L35.7386 0.494514C34.7523 -0.0178483 33.6331 -0.261115 32.1895 -0.381007C30.7518 -0.500402 28.9478 -0.5 26.5833 -0.5V0.5ZM13.4167 0.5H26.5833V-0.5H13.4167V0.5ZM4.72237 1.38193C5.54218 0.95607 6.51257 0.730226 7.8933 0.615562C9.28002 0.500402 11.0354 0.5 13.4167 0.5V-0.5C11.0522 -0.5 9.24824 -0.500402 7.81054 -0.381007C6.36686 -0.261115 5.24773 -0.0178483 4.26139 0.494515L4.72237 1.38193ZM1.38193 4.72237C2.12512 3.29166 3.29166 2.12512 4.72237 1.38193L4.26139 0.494515C2.64804 1.33258 1.33258 2.64804 0.494515 4.26139L1.38193 4.72237ZM25.4425 13.6023C23.9623 12.187 22.0787 11.4697 20 11.4697V12.4697C21.8365 12.4697 23.4681 13.0979 24.7515 14.325L25.4425 13.6023ZM28.5677 9.78585L24.7435 13.6101L25.4506 14.3172L29.2748 10.493L28.5677 9.78585ZM20 7.16667C23.4627 7.16667 26.3603 8.43659 28.5804 10.5052L29.2621 9.77358C26.864 7.53917 23.7253 6.16667 20 6.16667V7.16667ZM8.53144 14.237C10.6438 10.0415 14.9841 7.16667 20 7.16667V6.16667C14.5917 6.16667 9.91381 9.26763 7.63826 13.7873L8.53144 14.237ZM7.16667 20C7.16667 17.929 7.66242 15.9692 8.53176 14.2364L7.63794 13.7879C6.70122 15.6551 6.16667 17.768 6.16667 20H7.16667ZM8.53179 25.7637C7.66245 24.0309 7.16667 22.071 7.16667 20H6.16667C6.16667 22.2321 6.70124 24.345 7.63796 26.2121L8.53179 25.7637ZM20 32.8333C14.9841 32.8333 10.6438 29.9585 8.53147 25.7631L7.63829 26.2128C9.91385 30.7324 14.5917 33.8333 20 33.8333V32.8333ZM28.4851 29.7357C26.3793 31.6795 23.4854 32.8333 20 32.8333V33.8333C23.7146 33.8333 26.8572 32.5993 29.1634 30.4705L28.4851 29.7357ZM32.3 20.3031C32.3 24.2415 30.8917 27.52 28.4856 29.7352L29.1629 30.4709C31.7992 28.0437 33.3 24.4859 33.3 20.3031H32.3ZM32.0656 17.6646C32.2179 18.5083 32.3 19.3877 32.3 20.3031H33.3C33.3 19.3275 33.2125 18.3887 33.0497 17.487L32.0656 17.6646ZM20 18.0758H32.5576V17.0758H20V18.0758ZM20.5 22.7334V17.5758H19.5V22.7334H20.5ZM27.1758 22.2334H20V23.2334H27.1758V22.2334ZM24.7934 27.173C26.3157 26.1538 27.3334 24.6256 27.6674 22.8246L26.6842 22.6422C26.4 24.1744 25.5389 25.4704 24.237 26.3421L24.7934 27.173ZM20 28.5303C21.8831 28.5303 23.5093 28.0334 24.7935 27.1729L24.2369 26.3422C23.1332 27.0817 21.7048 27.5303 20 27.5303V28.5303ZM12.0649 22.6912C13.1758 26.0301 16.2947 28.5303 20 28.5303V27.5303C16.7599 27.5303 13.9999 25.3395 13.0138 22.3755L12.0649 22.6912ZM11.6212 20C11.6212 20.9363 11.7826 21.8442 12.065 22.6914L13.0137 22.3752C12.7628 21.6225 12.6212 20.8213 12.6212 20H11.6212ZM12.0651 17.3086C11.7826 18.1558 11.6212 19.0637 11.6212 20H12.6212C12.6212 19.1788 12.7628 18.3775 13.0137 17.6248L12.0651 17.3086ZM20 11.4697C16.2947 11.4697 13.1758 13.9699 12.065 17.3088L13.0138 17.6245C14 14.6605 16.7599 12.4697 20 12.4697V11.4697Z" fill="black" fill-opacity="0.15" mask="url(#path-1-inside-1_20_673)"/>
</svg>
