<svg width="61" height="60" viewBox="0 0 61 60" fill="none" xmlns="http://www.w3.org/2000/svg">
<path fill-rule="evenodd" clip-rule="evenodd" d="M1.90733 6.73782C0.5 9.44705 0.5 13.0064 0.5 20.125V39.875C0.5 46.9936 0.5 50.553 1.90733 53.2622C3.09328 55.5452 4.95478 57.4067 7.23782 58.5927C9.94705 60 13.5064 60 20.625 60H40.375C47.4936 60 51.053 60 53.7622 58.5927C56.0452 57.4067 57.9067 55.5452 59.0927 53.2622C60.5 50.553 60.5 46.9936 60.5 39.875V20.125C60.5 13.0064 60.5 9.44705 59.0927 6.73782C57.9067 4.45478 56.0452 2.59328 53.7622 1.40733C51.053 0 47.4936 0 40.375 0H20.625C13.5064 0 9.94705 0 7.23782 1.40733C4.95478 2.59328 3.09328 4.45478 1.90733 6.73782ZM13.9673 18.6332C16.8419 18.6332 19.1722 16.3029 19.1722 13.4283C19.1722 10.5536 16.8419 8.22327 13.9673 8.22327C11.0926 8.22327 8.76227 10.5536 8.76227 13.4283C8.76227 16.3029 11.0926 18.6332 13.9673 18.6332ZM23.9391 22.4799H32.5655V26.4317C32.5655 26.4317 34.9063 21.7499 41.2755 21.7499C46.9571 21.7499 51.6637 24.5488 51.6637 33.08V51.07H42.7244V35.2599C42.7244 30.2273 40.0376 29.6738 37.9902 29.6738C33.7412 29.6738 33.0138 33.3388 33.0138 35.9164V51.07H23.9391V22.4799ZM18.5046 22.4799H9.42994V51.07H18.5046V22.4799Z" fill="#9932D8"/>
</svg>
