<svg width="61" height="60" viewBox="0 0 61 60" fill="none" xmlns="http://www.w3.org/2000/svg">
<g clip-path="url(#clip0_20_667)">
<path fill-rule="evenodd" clip-rule="evenodd" d="M2.15733 6.73782C0.75 9.44705 0.75 13.0064 0.75 20.125V39.875C0.75 46.9936 0.75 50.553 2.15733 53.2622C3.34328 55.5452 5.20478 57.4067 7.48782 58.5927C10.197 60 13.7564 60 20.875 60H40.625C47.7436 60 51.303 60 54.0122 58.5927C56.2952 57.4067 58.1567 55.5452 59.3427 53.2622C60.75 50.553 60.75 46.9936 60.75 39.875V20.125C60.75 13.0064 60.75 9.44705 59.3427 6.73782C58.1567 4.45478 56.2952 2.59328 54.0122 1.40733C51.303 0 47.7436 0 40.625 0H20.875C13.7564 0 10.197 0 7.48782 1.40733C5.20478 2.59328 3.34328 4.45478 2.15733 6.73782ZM10.4409 27.9651L46.5637 14.0325C48.2135 13.2837 49.8059 14.429 49.1761 16.954L43.0247 45.942C42.5953 48.0021 41.3501 48.4949 39.6257 47.5436L30.2545 40.6197L30.0779 40.7914C27.9489 42.8614 26.0733 44.685 25.7502 45.0012L25.7157 45.0349C25.2095 45.5299 24.7915 45.9386 23.8749 45.9386C22.9234 45.9386 22.844 45.657 22.6528 44.979C22.5999 44.7915 22.5385 44.5737 22.4477 44.3231L19.0006 33.7545L9.99149 30.9426C7.99006 30.3294 7.97544 28.9543 10.4409 27.9651ZM40.7211 20.2969L20.4145 33.1085L23.8364 43.5992L24.5134 36.3782L41.9012 20.69C42.6644 20.0126 41.7349 19.6821 40.7211 20.2969Z" fill="#9932D8"/>
</g>
<defs>
<clipPath id="clip0_20_667">
<rect width="60" height="60" fill="white" transform="translate(0.75)"/>
</clipPath>
</defs>
</svg>
