<svg width="64" height="64" viewBox="0 0 64 64" fill="none" xmlns="http://www.w3.org/2000/svg">
<path d="M63.3341 0.419678L0.445618 0.419678L0.445618 63.3082H63.3341V0.419678Z" fill="#F7DF1E"/>
<path d="M42.6907 49.5516C43.9575 51.6199 45.6056 53.1402 48.5204 53.1402C50.9691 53.1402 52.5333 51.9164 52.5333 50.2254C52.5333 48.199 50.9261 47.4812 48.2309 46.3023L46.7535 45.6684C42.4891 43.8517 39.6561 41.5757 39.6561 36.7642C39.6561 32.3321 43.0331 28.9581 48.3108 28.9581C52.0681 28.9581 54.7693 30.2658 56.7159 33.6897L52.114 36.6444C51.1008 34.8277 50.0078 34.1119 48.3108 34.1119C46.5798 34.1119 45.4828 35.21 45.4828 36.6444C45.4828 38.4173 46.5808 39.135 49.1163 40.2331L50.5937 40.866C55.6148 43.0191 58.4498 45.2142 58.4498 50.1495C58.4498 55.4701 54.2702 58.3849 48.6572 58.3849C43.1689 58.3849 39.6232 55.7695 37.8883 52.3416L42.6907 49.5516ZM21.8147 50.0637C22.7431 51.7107 23.5876 53.1033 25.618 53.1033C27.5596 53.1033 28.7844 52.3436 28.7844 49.3898V29.2955H34.6939V49.4697C34.6939 55.5889 31.1063 58.3739 25.8696 58.3739C21.1379 58.3739 18.3978 55.9253 17.0043 52.976L21.8147 50.0637Z" fill="black"/>
</svg>
