<svg width="65" height="63" viewBox="0 0 65 63" fill="none" xmlns="http://www.w3.org/2000/svg">
<path fill-rule="evenodd" clip-rule="evenodd" d="M32.6404 0.759033C15.1381 0.759033 0.94751 14.9496 0.94751 32.4558C0.94751 46.4596 10.0285 58.3386 22.6235 62.5318C24.2093 62.8217 24.7872 61.843 24.7872 61.0024C24.7872 60.2513 24.76 58.2569 24.7444 55.6126C15.9281 57.5272 14.0679 51.363 14.0679 51.363C12.6261 47.703 10.548 46.7281 10.548 46.7281C7.67018 44.7609 10.7659 44.7999 10.7659 44.7999C13.9473 45.0256 15.6206 48.0668 15.6206 48.0668C18.4479 52.9099 23.0399 51.5109 24.8456 50.7014C25.1336 48.6525 25.9508 47.2554 26.8575 46.4635C19.8196 45.6638 12.4198 42.9436 12.4198 30.798C12.4198 27.3384 13.6554 24.5092 15.6829 22.293C15.356 21.4913 14.2683 18.2691 15.9923 13.9047C15.9923 13.9047 18.6541 13.0525 24.7094 17.1542C27.237 16.4518 29.9494 16.0996 32.6443 16.0879C35.3353 16.0996 38.0477 16.4518 40.5792 17.1542C46.6306 13.0525 49.2866 13.9047 49.2866 13.9047C51.0164 18.2691 49.9287 21.4913 49.6018 22.293C51.6332 24.5092 52.861 27.3384 52.861 30.798C52.861 42.9747 45.4495 45.6541 38.3882 46.4382C39.5265 47.4169 40.5403 49.351 40.5403 52.3086C40.5403 56.5446 40.5014 59.9633 40.5014 61.0024C40.5014 61.8507 41.0715 62.8373 42.6806 62.5279C55.2659 58.3269 64.3391 46.4557 64.3391 32.4558C64.3391 14.9496 50.1466 0.759033 32.6404 0.759033Z" fill="black"/>
</svg>
