<svg width="45" height="64" viewBox="0 0 45 64" fill="none" xmlns="http://www.w3.org/2000/svg">
<path d="M4.27087 0.419678L7.09594 0.419678V3.22018L9.69992 3.22018V0.419678L12.525 0.419678V8.89489H9.69992V6.06982H7.12051V8.89489H4.27087L4.27087 0.419678ZM16.259 3.24475H13.7656V0.419678L21.5898 0.419678V3.24475H19.0841V8.89489H16.259V3.24475ZM22.8304 0.419678L25.7905 0.419678L27.6084 3.40443L29.4263 0.419678L32.3865 0.419678V8.89489H29.5614V4.69413L27.5838 7.74029L25.6063 4.69413V8.89489H22.8304V0.419678ZM33.7867 0.419678L36.6118 0.419678V6.09438H40.616V8.89489H33.7867" fill="black"/>
<path d="M4.17262 58.2722L0.119263 12.7763L44.6817 12.7763L40.6283 58.2476L22.3636 63.3082" fill="#E44D26"/>
<path d="M22.4004 59.4391L22.4004 16.5103H40.6159L37.1399 55.3243" fill="#F16529"/>
<path d="M8.39795 22.0745H22.4005V27.6509H14.5148L15.0307 33.3625H22.4005V38.9266H9.92103L8.39795 22.0745ZM10.1667 41.7271H15.7677L16.1608 46.1858L22.4005 47.8563V53.6784L10.9528 50.4848" fill="#EBEBEB"/>
<path d="M36.3538 22.0745H22.3759V27.6509H35.8379L36.3538 22.0745ZM35.3343 33.3625H22.3759V38.9389H29.2543L28.6033 46.1858L22.3759 47.8563V53.6538L33.799 50.4848" fill="white"/>
</svg>
