<svg width="24" height="28" viewBox="0 0 24 28" fill="none" xmlns="http://www.w3.org/2000/svg">
<path d="M23.863 0.546082L21.7015 24.7603L11.9855 27.4539L2.29622 24.7641L0.137016 0.546082L23.863 0.546082Z" fill="url(#paint0_linear_102_842)"/>
<path d="M5.08696 11.5084L5.35317 14.4786H12V11.5084H5.08696Z" fill="#EBEBEB"/>
<path d="M12 5.49652H11.9897H4.55205L4.82205 8.4668H12V5.49652Z" fill="#EBEBEB"/>
<path d="M12 22.3127V19.2224L11.987 19.2259L8.67901 18.3327L8.46754 15.9637H6.86012H5.48589L5.90202 20.6275L11.9863 22.3165L12 22.3127Z" fill="#EBEBEB"/>
<path d="M15.6473 14.4786L15.3025 18.3308L11.9898 19.2249L11.9898 22.3151L18.0789 20.6275L18.1236 20.1256L18.8216 12.306L18.894 11.5084L19.4303 5.49652H11.9898V8.4668H16.1751L15.9049 11.5084H11.9898V14.4786H15.6473Z" fill="white"/>
<defs>
<linearGradient id="paint0_linear_102_842" x1="4.57377e-07" y1="1" x2="24" y2="27" gradientUnits="userSpaceOnUse">
<stop stop-color="#E840A5"/>
<stop offset="1" stop-color="#3A2D88"/>
</linearGradient>
</defs>
</svg>
