<svg width="28" height="28" viewBox="0 0 28 28" fill="none" xmlns="http://www.w3.org/2000/svg">
<path fill-rule="evenodd" clip-rule="evenodd" d="M13.9987 0C6.26796 0 0 6.26796 0 14.0004C0 20.1859 4.01105 25.4328 9.57427 27.2849C10.2747 27.413 10.53 26.9807 10.53 26.6094C10.53 26.2777 10.5179 25.3967 10.5111 24.2287C6.6169 25.0744 5.79527 22.3517 5.79527 22.3517C5.15841 20.7351 4.24052 20.3045 4.24052 20.3045C2.9694 19.4356 4.33678 19.4528 4.33678 19.4528C5.74198 19.5525 6.48111 20.8958 6.48111 20.8958C7.72989 23.035 9.75819 22.417 10.5558 22.0595C10.683 21.1545 11.0439 20.5374 11.4444 20.1876C8.3358 19.8344 5.06731 18.6329 5.06731 13.2682C5.06731 11.7401 5.61306 10.4904 6.50861 9.51153C6.36422 9.15743 5.88379 7.73418 6.64526 5.80644C6.64526 5.80644 7.82099 5.43 10.4956 7.24172C11.612 6.93146 12.8101 6.7759 14.0004 6.77074C15.189 6.7759 16.3871 6.93146 17.5053 7.24172C20.1781 5.43 21.3513 5.80644 21.3513 5.80644C22.1153 7.73418 21.6349 9.15743 21.4905 9.51153C22.3878 10.4904 22.9301 11.7401 22.9301 13.2682C22.9301 18.6466 19.6565 19.8301 16.5375 20.1764C17.0403 20.6087 17.4881 21.463 17.4881 22.7694C17.4881 24.6404 17.4709 26.1505 17.4709 26.6094C17.4709 26.9841 17.7227 27.4199 18.4335 27.2832C23.9924 25.4277 28 20.1842 28 14.0004C28 6.26796 21.7312 0 13.9987 0Z" fill="url(#paint0_linear_20_772)"/>
<defs>
<linearGradient id="paint0_linear_20_772" x1="0" y1="0" x2="28" y2="27" gradientUnits="userSpaceOnUse">
<stop stop-color="#E840A5"/>
<stop offset="1" stop-color="#3A2D88"/>
</linearGradient>
</defs>
</svg>
