<svg width="28" height="28" viewBox="0 0 28 28" fill="none" xmlns="http://www.w3.org/2000/svg">
<path d="M27.8889 0.111115L0.111115 0.111115L0.111115 27.8889H27.8889V0.111115Z" fill="url(#paint0_linear_102_840)"/>
<path d="M18.7707 21.8126C19.3302 22.7262 20.0582 23.3977 21.3457 23.3977C22.4272 23.3977 23.1182 22.8571 23.1182 22.1102C23.1182 21.2152 22.4083 20.8981 21.2178 20.3774L20.5653 20.0974C18.6817 19.295 17.4303 18.2897 17.4303 16.1645C17.4303 14.2068 18.922 12.7165 21.2531 12.7165C22.9127 12.7165 24.1058 13.2941 24.9656 14.8064L22.933 16.1116C22.4854 15.3091 22.0026 14.9929 21.2531 14.9929C20.4885 14.9929 20.004 15.478 20.004 16.1116C20.004 16.8946 20.489 17.2116 21.6089 17.6966L22.2615 17.9762C24.4793 18.9272 25.7315 19.8968 25.7315 22.0767C25.7315 24.4268 23.8854 25.7143 21.4061 25.7143C18.9819 25.7143 17.4158 24.5591 16.6495 23.045L18.7707 21.8126ZM9.54982 22.0388C9.95987 22.7663 10.3329 23.3814 11.2297 23.3814C12.0873 23.3814 12.6283 23.0459 12.6283 21.7412V12.8655H15.2385V21.7765C15.2385 24.4793 13.6539 25.7094 11.3408 25.7094C9.25088 25.7094 8.04056 24.6279 7.42504 23.3252L9.54982 22.0388Z" fill="#F4E3FC"/>
<defs>
<linearGradient id="paint0_linear_102_840" x1="-3.1665e-08" y1="-3.1665e-08" x2="28" y2="28" gradientUnits="userSpaceOnUse">
<stop stop-color="#E840A5"/>
<stop offset="1" stop-color="#3A2D88"/>
</linearGradient>
</defs>
</svg>
