<svg width="41" height="32" viewBox="0 0 41 32" fill="none" xmlns="http://www.w3.org/2000/svg">
<path fill-rule="evenodd" clip-rule="evenodd" d="M8.87729 0.114441C6.59495 0.114441 4.90612 2.1121 4.98175 4.2785C5.05432 6.35983 4.96003 9.05546 4.28143 11.2537C3.60042 13.4582 2.44948 14.8551 0.569168 15.0344L0.569168 17.0588C2.44948 17.2385 3.60042 18.6348 4.28136 20.8395C4.96003 23.0378 5.05425 25.7334 4.98167 27.8148C4.90604 29.9809 6.59487 31.9788 8.87761 31.9788H32.2641C34.5464 31.9788 36.2349 29.9812 36.1593 27.8148C36.0867 25.7334 36.181 23.0378 36.8596 20.8395C37.5407 18.6348 38.6888 17.238 40.5692 17.0588V15.0344C38.6889 14.8548 37.5407 13.4585 36.8596 11.2537C36.181 9.05577 36.0867 6.35983 36.1593 4.2785C36.2349 2.11241 34.5464 0.114441 32.2641 0.114441L8.87698 0.114441H8.87729ZM27.6878 19.7291C27.6878 22.7121 25.4628 24.5212 21.7702 24.5212H15.4844C15.3046 24.5212 15.1322 24.4498 15.005 24.3227C14.8779 24.1955 14.8064 24.0231 14.8064 23.8433L14.8064 8.25007C14.8064 8.07026 14.8779 7.89781 15.005 7.77067C15.1322 7.64353 15.3046 7.5721 15.4844 7.5721H21.7344C24.8134 7.5721 26.8341 9.23991 26.8341 11.8005C26.8341 13.5978 25.4747 15.2068 23.7429 15.4887V15.5824C26.1004 15.841 27.6878 17.4738 27.6878 19.7291V19.7291ZM21.0848 9.72124H17.5007V14.7837H20.5194C22.853 14.7837 24.1397 13.8441 24.1397 12.1644C24.1395 10.5904 23.0332 9.72124 21.0848 9.72124ZM17.5007 16.7924V22.3714H21.2167C23.6464 22.3714 24.9333 21.3965 24.9333 19.5643C24.9333 17.7321 23.6103 16.7921 21.0604 16.7921H17.5007V16.7924Z" fill="url(#paint0_linear_102_844)"/>
<defs>
<linearGradient id="paint0_linear_102_844" x1="1.0635" y1="-0.0168676" x2="40.0748" y2="32.1101" gradientUnits="userSpaceOnUse">
<stop stop-color="#E840A5"/>
<stop offset="1" stop-color="#3A2D88"/>
</linearGradient>
</defs>
</svg>
