<svg width="80" height="64" viewBox="0 0 80 64" fill="none" xmlns="http://www.w3.org/2000/svg">
<path fill-rule="evenodd" clip-rule="evenodd" d="M16.5734 0.427185C12.07 0.427185 8.73767 4.36888 8.88689 8.64354C9.0301 12.7503 8.84404 18.0692 7.50506 22.4068C6.16131 26.7565 3.89033 29.5129 0.180176 29.8667L0.180176 33.8611C3.89033 34.2157 6.16131 36.9707 7.50491 41.3211C8.84404 45.6586 9.02995 50.9775 8.88674 55.0843C8.73752 59.3583 12.0698 63.3007 16.574 63.3007H62.7193C67.2227 63.3007 70.5544 59.359 70.4052 55.0843C70.262 50.9775 70.4481 45.6586 71.787 41.3211C73.1308 36.9707 75.3962 34.2146 79.1065 33.8611V29.8667C75.3964 29.5122 73.1309 26.7571 71.787 22.4068C70.4479 18.0698 70.262 12.7503 70.4052 8.64354C70.5544 4.36949 67.2227 0.427185 62.7193 0.427185L16.5728 0.427185H16.5734ZM53.6896 39.1299C53.6896 45.0159 49.2992 48.5857 42.0131 48.5857H29.6103C29.2555 48.5857 28.9153 48.4447 28.6644 48.1939C28.4135 47.943 28.2726 47.6027 28.2726 47.2479L28.2726 16.4801C28.2726 16.1253 28.4135 15.785 28.6644 15.5341C28.9153 15.2833 29.2555 15.1423 29.6103 15.1423H41.9425C48.0179 15.1423 52.005 18.4332 52.005 23.4857C52.005 27.032 49.3228 30.2068 45.9057 30.763V30.9479C50.5574 31.4582 53.6896 34.68 53.6896 39.1299V39.1299ZM40.6608 19.3829H33.5888V29.372H39.5452C44.1497 29.372 46.6886 27.5179 46.6886 24.2037C46.6881 21.0979 44.5053 19.3829 40.6608 19.3829ZM33.5888 33.3355V44.3437H40.921C45.7151 44.3437 48.2545 42.42 48.2545 38.8048C48.2545 35.1896 45.6439 33.3348 40.6127 33.3348H33.5888V33.3355Z" fill="#7952B3"/>
</svg>
