<svg width="20" height="28" viewBox="0 0 20 28" fill="none" xmlns="http://www.w3.org/2000/svg">
<path d="M1.99219 0.111115L3.24002 0.111115V1.34809L4.39019 1.34809V0.111115L5.63802 0.111115V3.8546H4.39019V2.60677H3.25087V3.8546H1.99219L1.99219 0.111115ZM7.28733 1.35894H6.18598V0.111115L9.64193 0.111115V1.35894H8.53516V3.8546H7.28733V1.35894ZM10.1899 0.111115L11.4974 0.111115L12.3003 1.42947L13.1033 0.111115L14.4108 0.111115V3.8546L13.163 3.8546V1.99914L12.2895 3.34462L11.416 1.99914V3.8546H10.1899V0.111115ZM15.0293 0.111115L16.2771 0.111115V2.61763H18.0458V3.8546H15.0293" fill="#AA63B7"/>
<path d="M1.94879 25.6645L0.158421 5.569L19.8416 5.569L18.0512 25.6536L9.98372 27.8889" fill="url(#paint0_linear_102_841)"/>
<path d="M3.8151 9.67599H10V12.1391H6.51693L6.74479 14.6619H10V17.1196H4.48785L3.8151 9.67599ZM4.59635 18.3565H7.07031L7.24392 20.326L10 21.0638V23.6354L4.94358 22.2248" fill="white"/>
<path d="M16.1632 9.67599H9.98915V12.1391H15.9353L16.1632 9.67599ZM15.7129 14.6619H9.98915V17.125H13.0273L12.7398 20.326L9.98915 21.0638V23.6246L15.0347 22.2248" fill="white"/>
<defs>
<linearGradient id="paint0_linear_102_841" x1="-1.78624e-07" y1="6" x2="20" y2="27" gradientUnits="userSpaceOnUse">
<stop stop-color="#E840A5"/>
<stop offset="1" stop-color="#3A2D88"/>
</linearGradient>
</defs>
</svg>
