<svg width="54" height="62" viewBox="0 0 54 62" fill="none" xmlns="http://www.w3.org/2000/svg">
<path d="M53.7475 0.259277L48.8539 55.08L26.857 61.1783L4.92064 55.0886L0.0322266 0.259277L53.7475 0.259277Z" fill="#264DE4"/>
<path d="M44.6645 51.5893L48.8464 4.74243L26.8899 4.74243L26.8899 56.5171L44.6645 51.5893Z" fill="#2965F1"/>
<path d="M11.2388 25.0779L11.8415 31.8024H26.8899V25.0779H11.2388Z" fill="#EBEBEB"/>
<path d="M26.8899 11.467H26.8667L10.0278 11.467L10.6391 18.1917H26.8899V11.467Z" fill="#EBEBEB"/>
<path d="M26.8899 49.5388V42.5424L26.8604 42.5502L19.3712 40.528L18.8925 35.1648H15.2533H12.142L13.0841 45.7234L26.859 49.5474L26.8899 49.5388Z" fill="#EBEBEB"/>
<path d="M35.1473 31.8023L34.3667 40.5236L26.8667 42.5479L26.8667 49.544L40.6525 45.7233L40.7536 44.5872L42.3338 26.8835L42.4979 25.0778L43.7119 11.467L26.8667 11.467V18.1917H36.3423L35.7304 25.0778H26.8667V31.8023H35.1473Z" fill="white"/>
</svg>
