<svg width="332" height="354" viewBox="0 0 332 354" fill="none" xmlns="http://www.w3.org/2000/svg">
<path fill-rule="evenodd" clip-rule="evenodd" d="M137.702 5.34805C120.407 -4.63721 98.8702 3.11185 89.9652 19.8591C81.4094 35.9484 68.9015 55.9625 54.1418 69.6517C39.3368 83.377 24.5036 88.9273 9.47069 82.0596L0.61405 97.3998C14.0764 106.988 16.6893 122.604 12.2034 142.29C7.7287 161.917 -3.35069 182.756 -13.0065 198.21C-23.0562 214.293 -18.9999 236.822 -1.70193 246.809L175.514 349.125C192.809 359.11 214.344 351.36 223.249 334.612C231.805 318.523 244.313 298.509 259.073 284.82C273.879 271.092 288.69 265.531 303.723 272.4L312.58 257.06C299.117 247.472 296.526 231.868 301.01 212.181C305.484 192.557 316.564 171.715 326.22 156.261C336.27 140.178 332.216 117.651 314.921 107.665L137.7 5.34668L137.702 5.34805ZM194.43 236.278C181.379 258.883 156.603 262.857 128.621 246.702L80.9894 219.202C79.6269 218.415 78.6327 217.12 78.2255 215.6C77.8183 214.08 78.0314 212.461 78.8181 211.099L147.038 92.9375C147.825 91.575 149.121 90.5808 150.64 90.1736C152.16 89.7664 153.779 89.9795 155.142 90.7662L202.503 118.11C225.834 131.581 233.85 153.059 222.647 172.463C214.784 186.082 197.444 192.327 183.088 186.887L182.678 187.597C199.411 199.871 204.296 219.189 194.43 236.278V236.278ZM188.178 131.554L161.019 115.873L138.87 154.235L161.745 167.442C179.428 177.652 193.29 176.16 200.638 163.433C207.523 151.504 202.942 140.078 188.178 131.554ZM130.082 169.457L105.674 211.733L133.833 227.99C152.244 238.62 166.261 236.862 174.277 222.979C182.293 209.095 176.38 196.183 157.058 185.028L130.084 169.454L130.082 169.457Z" fill="#9932D8" fill-opacity="0.1"/>
</svg>
