<svg width="341" height="405" viewBox="0 0 341 405" fill="none" xmlns="http://www.w3.org/2000/svg">
<path d="M62.9336 214.549C146.635 262.874 229.446 276.142 247.897 244.183C266.348 212.224 213.453 147.142 129.752 98.8169C46.0506 50.492 -36.7604 37.2245 -55.2118 69.1831C-73.6631 101.142 -20.7676 166.224 62.9336 214.549Z" stroke="#9932D8" stroke-opacity="0.1" stroke-width="5"/>
<path d="M29.5244 156.683C29.5244 253.333 59.4399 331.683 96.3425 331.683C133.245 331.683 163.161 253.333 163.161 156.683C163.161 60.0333 133.245 -18.3169 96.3425 -18.3169C59.4399 -18.3169 29.5244 60.0333 29.5244 156.683Z" stroke="#9932D8" stroke-opacity="0.1" stroke-width="5"/>
<path d="M62.9336 98.8168C-20.7676 147.142 -73.663 212.224 -55.2117 244.183C-36.7604 276.142 46.0506 262.874 129.752 214.549C213.453 166.224 266.349 101.142 247.897 69.1831C229.446 37.2244 146.635 50.4919 62.9336 98.8168Z" stroke="#9932D8" stroke-opacity="0.1" stroke-width="5"/>
<path d="M80.0362 184.928C95.635 193.934 115.581 188.589 124.587 172.99C133.593 157.391 128.249 137.445 112.65 128.439C97.0509 119.433 77.1048 124.778 68.0987 140.377C59.0927 155.975 64.4373 175.922 80.0362 184.928Z" fill="#9932D8" fill-opacity="0.1"/>
</svg>
