<svg width="296" height="350" viewBox="0 0 296 350" fill="none" xmlns="http://www.w3.org/2000/svg">
<path d="M125.157 123.464C100.733 92.3646 80.3078 80.5136 55.8628 80.5136C6.02628 80.5136 -32.1577 145.371 -32.1577 214.018C-32.1577 256.976 -11.3757 284.069 23.4343 284.069C48.488 284.069 66.5067 272.259 98.5383 216.265C98.5383 216.265 111.891 192.685 121.078 176.441C124.296 181.638 127.679 187.23 131.248 193.241L146.27 218.51C175.529 267.475 191.834 284.069 221.374 284.069C255.286 284.069 274.158 256.606 274.158 212.756C274.158 140.878 235.114 80.5136 187.681 80.5136C162.565 80.5136 142.932 99.4321 125.157 123.464ZM172.13 195.979L154.17 166.025C149.311 158.121 144.654 150.856 140.159 144.198C156.344 119.214 169.697 106.766 185.577 106.766C218.567 106.766 244.96 155.339 244.96 215.001C244.96 237.742 237.51 250.939 222.076 250.939C207.284 250.939 200.216 241.17 172.13 195.979ZM0.971984 214.579C0.971984 164.743 25.82 113.785 55.4414 113.785C71.4816 113.785 84.8858 123.049 105.418 152.442C85.9218 182.346 74.1116 201.102 74.1116 201.102C48.1419 241.813 39.157 250.939 24.6984 250.939C9.81649 250.939 0.971984 237.874 0.971984 214.579Z" fill="#9932D8" fill-opacity="0.05"/>
</svg>
